<?xml version="1.0" encoding="utf-8"?>
<svg viewBox="4.559 3.588 30 30" xmlns="http://www.w3.org/2000/svg">
  <defs>
    <linearGradient id="paint0_linear_120_1360" x1="15" y1="3" x2="15" y2="33" gradientUnits="userSpaceOnUse" gradientTransform="matrix(1, 0, 0, 1, 4.558971, 0.588257)">
      <stop stop-color="#877EFF"/>
      <stop offset="0.4615" stop-color="#685DFF"/>
      <stop offset="1" stop-color="#3121FF"/>
    </linearGradient>
  </defs>
  <path fill-rule="evenodd" clip-rule="evenodd" d="M 32.392 18.588 C 32.392 25.676 26.647 31.422 19.559 31.422 C 12.471 31.422 6.726 25.676 6.726 18.588 C 6.726 11.501 12.471 5.755 19.559 5.755 C 26.647 5.755 32.392 11.501 32.392 18.588 Z M 34.559 18.588 C 34.559 26.873 27.843 33.588 19.559 33.588 C 11.275 33.588 4.559 26.873 4.559 18.588 C 4.559 10.304 11.275 3.588 19.559 3.588 C 27.843 3.588 34.559 10.304 34.559 18.588 Z M 27.835 11.864 C 27.835 12.721 27.14 13.416 26.283 13.416 C 25.426 13.416 24.731 12.721 24.731 11.864 C 24.731 11.007 25.426 10.312 26.283 10.312 C 27.14 10.312 27.835 11.007 27.835 11.864 Z M 15.047 19.797 C 15.715 22.289 18.276 23.768 20.768 23.1 C 23.26 22.433 24.739 19.871 24.071 17.379 C 23.403 14.887 20.842 13.409 18.35 14.076 C 15.858 14.744 14.379 17.305 15.047 19.797 Z M 12.954 20.358 C 13.931 24.006 17.681 26.171 21.329 25.193 C 24.976 24.216 27.141 20.466 26.164 16.818 C 25.186 13.171 21.437 11.006 17.789 11.983 C 14.141 12.961 11.977 16.71 12.954 20.358 Z" fill="url(#paint0_linear_120_1360)" transform="matrix(1, 0, 0, 1, 3.552713678800501e-15, 7.549516567451064e-15)"/>
</svg>